<svg xmlns="http://www.w3.org/2000/svg" xmlns:xlink="http://www.w3.org/1999/xlink" width="1924" zoomAndPan="magnify" viewBox="0 0 1443 510.000002" height="680" preserveAspectRatio="xMidYMid meet" version="1.0"><defs><clipPath id="795d605761"><path d="M 1.410156 0 L 1441.585938 0 L 1441.585938 14.667969 L 1.410156 14.667969 Z M 1.410156 0 " clip-rule="nonzero"/></clipPath><clipPath id="bf64689267"><path d="M 1.410156 14.292969 L 1441.585938 14.292969 L 1441.585938 132.984375 L 1.410156 132.984375 Z M 1.410156 14.292969 " clip-rule="nonzero"/></clipPath><clipPath id="213ba18de1"><path d="M 1.410156 0 L 1441.585938 0 L 1441.585938 509.003906 L 1.410156 509.003906 Z M 1.410156 0 " clip-rule="nonzero"/></clipPath><clipPath id="5e061e4ea9"><path d="M 1.410156 0 L 275 0 L 275 509.003906 L 1.410156 509.003906 Z M 1.410156 0 " clip-rule="nonzero"/></clipPath><clipPath id="d105ac2327"><path d="M 401.308594 243.402344 L -31.089844 675.800781 L -563.273438 143.617188 L -130.875 -288.78125 Z M 401.308594 243.402344 " clip-rule="nonzero"/></clipPath><clipPath id="395e72e5af"><path d="M 244.613281 375.128906 C 230.054688 404.761719 209.726562 434.984375 184.992188 459.71875 C 160.257812 484.453125 132.214844 504.015625 102.742188 518.410156 C 102.039062 518.644531 101.570312 519.109375 100.871094 519.339844 C -11.65625 571.558594 -151.957031 552.601562 -246.179688 460.714844 L -563.273438 143.617188 L -130.875 -288.78125 L 185.984375 28.082031 C 278.578125 123.007812 298.46875 262.375 244.613281 375.128906 " clip-rule="nonzero"/></clipPath><clipPath id="917bef45d1"><path d="M 1109 0 L 1441.585938 0 L 1441.585938 509.003906 L 1109 509.003906 Z M 1109 0 " clip-rule="nonzero"/></clipPath><clipPath id="daccc64024"><path d="M 1414.539062 712.460938 L 982.140625 280.0625 L 1514.324219 -252.121094 L 1946.722656 180.277344 Z M 1414.539062 712.460938 " clip-rule="nonzero"/></clipPath><clipPath id="05b6bc9ed8"><path d="M 1282.8125 555.765625 C 1253.179688 541.207031 1222.957031 520.878906 1198.222656 496.144531 C 1173.488281 471.410156 1153.925781 443.367188 1139.53125 413.894531 C 1139.296875 413.191406 1138.832031 412.726562 1138.601562 412.023438 C 1086.382812 299.496094 1105.339844 159.195312 1197.226562 64.976562 L 1514.324219 -252.121094 L 1946.722656 180.277344 L 1629.863281 497.136719 C 1534.933594 589.734375 1395.566406 609.621094 1282.8125 555.765625 " clip-rule="nonzero"/></clipPath></defs><g clip-path="url(#795d605761)"><path fill="#ef7a51" d="M -138.515625 -203.699219 L -70.34375 -167.300781 C -2.179688 -130.910156 134.15625 -58.121094 270.496094 -45.949219 C 406.828125 -34.238281 543.164062 -82.003906 679.5 -82.34375 C 815.835938 -82.003906 952.167969 -34.238281 1088.503906 -39.921875 C 1224.84375 -45.609375 1361.179688 -107.027344 1429.34375 -136.933594 L 1497.515625 -167.300781 L 1497.515625 14.667969 L 1429.34375 14.667969 C 1361.179688 14.667969 1224.84375 14.667969 1088.503906 14.667969 C 952.167969 14.667969 815.835938 14.667969 679.5 14.667969 C 543.164062 14.667969 406.828125 14.667969 270.496094 14.667969 C 134.15625 14.667969 -2.179688 14.667969 -70.34375 14.667969 L -138.515625 14.667969 Z M -138.515625 -203.699219 " fill-opacity="1" fill-rule="nonzero"/></g><g clip-path="url(#bf64689267)"><path fill="#ef7a51" d="M -172.601562 14.292969 L 1573.617188 14.292969 L 1573.617188 132.875 L -172.601562 132.875 Z M -172.601562 14.292969 " fill-opacity="1" fill-rule="nonzero"/></g><g clip-path="url(#213ba18de1)"><rect x="-144.3" width="1731.6" fill="#ef7a51" y="-51" height="612.000002" fill-opacity="1"/></g><g clip-path="url(#5e061e4ea9)"><g clip-path="url(#d105ac2327)"><g clip-path="url(#395e72e5af)"><path fill="#ffffff" d="M 401.308594 243.402344 L -31.089844 675.800781 L -563.273438 143.617188 L -130.875 -288.78125 Z M 401.308594 243.402344 " fill-opacity="1" fill-rule="nonzero"/></g></g></g><g clip-path="url(#917bef45d1)"><g clip-path="url(#daccc64024)"><g clip-path="url(#05b6bc9ed8)"><path fill="#ffffff" d="M 1414.539062 712.460938 L 982.140625 280.0625 L 1514.324219 -252.121094 L 1946.722656 180.277344 Z M 1414.539062 712.460938 " fill-opacity="1" fill-rule="nonzero"/></g></g></g></svg>