<svg xmlns="http://www.w3.org/2000/svg" xmlns:xlink="http://www.w3.org/1999/xlink" width="1924" zoomAndPan="magnify" viewBox="0 0 1443 510.000002" height="680" preserveAspectRatio="xMidYMid meet" version="1.0"><defs><clipPath id="cd9445b122"><path d="M 1.410156 0 L 1441.585938 0 L 1441.585938 14.667969 L 1.410156 14.667969 Z M 1.410156 0 " clip-rule="nonzero"/></clipPath><clipPath id="af49dd399b"><path d="M 1.410156 14.292969 L 1441.585938 14.292969 L 1441.585938 132.984375 L 1.410156 132.984375 Z M 1.410156 14.292969 " clip-rule="nonzero"/></clipPath><clipPath id="c1fd5587f4"><path d="M 1.410156 0 L 1441.585938 0 L 1441.585938 509.003906 L 1.410156 509.003906 Z M 1.410156 0 " clip-rule="nonzero"/></clipPath><clipPath id="e088c528e3"><path d="M 1.410156 0 L 15 0 L 15 509.003906 L 1.410156 509.003906 Z M 1.410156 0 " clip-rule="nonzero"/></clipPath><clipPath id="c5d38dd103"><path d="M 141.671875 280.070312 L -290.726562 712.46875 L -822.90625 180.285156 L -390.507812 -252.113281 Z M 141.671875 280.070312 " clip-rule="nonzero"/></clipPath><clipPath id="8a68eb7c26"><path d="M -15.023438 411.796875 C -29.582031 441.429688 -49.90625 471.652344 -74.640625 496.386719 C -99.378906 521.121094 -127.421875 540.683594 -156.894531 555.078125 C -157.597656 555.3125 -158.0625 555.777344 -158.765625 556.007812 C -271.292969 608.226562 -411.589844 589.269531 -505.8125 497.382812 L -822.90625 180.285156 L -390.507812 -252.113281 L -73.648438 64.746094 C 18.945312 159.675781 38.835938 299.042969 -15.023438 411.796875 " clip-rule="nonzero"/></clipPath></defs><g clip-path="url(#cd9445b122)"><path fill="#ef7a51" d="M -138.515625 -203.699219 L -70.34375 -167.300781 C -2.179688 -130.910156 134.15625 -58.121094 270.496094 -45.949219 C 406.828125 -34.238281 543.164062 -82.003906 679.5 -82.34375 C 815.835938 -82.003906 952.167969 -34.238281 1088.503906 -39.921875 C 1224.84375 -45.609375 1361.179688 -107.027344 1429.34375 -136.933594 L 1497.515625 -167.300781 L 1497.515625 14.667969 L 1429.34375 14.667969 C 1361.179688 14.667969 1224.84375 14.667969 1088.503906 14.667969 C 952.167969 14.667969 815.835938 14.667969 679.5 14.667969 C 543.164062 14.667969 406.828125 14.667969 270.496094 14.667969 C 134.15625 14.667969 -2.179688 14.667969 -70.34375 14.667969 L -138.515625 14.667969 Z M -138.515625 -203.699219 " fill-opacity="1" fill-rule="nonzero"/></g><g clip-path="url(#af49dd399b)"><path fill="#ef7a51" d="M -172.601562 14.292969 L 1573.617188 14.292969 L 1573.617188 132.875 L -172.601562 132.875 Z M -172.601562 14.292969 " fill-opacity="1" fill-rule="nonzero"/></g><g clip-path="url(#c1fd5587f4)"><rect x="-144.3" width="1731.6" fill="#ef7a51" y="-51" height="612.000002" fill-opacity="1"/></g><g clip-path="url(#e088c528e3)"><g clip-path="url(#c5d38dd103)"><g clip-path="url(#8a68eb7c26)"><path fill="#ffffff" d="M 141.671875 280.070312 L -290.726562 712.46875 L -822.90625 180.285156 L -390.507812 -252.113281 Z M 141.671875 280.070312 " fill-opacity="1" fill-rule="nonzero"/></g></g></g></svg>