<?xml version="1.0" standalone="no"?>
<!DOCTYPE svg PUBLIC "-//W3C//DTD SVG 20010904//EN"
 "http://www.w3.org/TR/2001/REC-SVG-20010904/DTD/svg10.dtd">
<svg version="1.0" xmlns="http://www.w3.org/2000/svg"
 width="53.000000pt" height="53.000000pt" viewBox="0 0 53.000000 53.000000"
 preserveAspectRatio="xMidYMid meet">

<g transform="translate(0.000000,53.000000) scale(0.100000,-0.100000)"
fill="#000000" stroke="none">
<path d="M133 504 c-95 -47 -155 -230 -111 -335 59 -137 231 -200 366 -133 87
43 132 121 133 229 1 79 -26 134 -89 182 -82 62 -230 91 -299 57z m127 -54 c0
-27 19 -35 35 -14 13 18 14 18 35 -4 13 -13 19 -30 16 -39 -5 -13 0 -15 29
-10 21 3 33 2 30 -4 -8 -12 -62 -11 -87 2 -16 9 -24 7 -36 -5 -15 -15 -14 -16
6 -16 21 0 23 -4 20 -42 -2 -36 -7 -44 -25 -46 -21 -3 -23 -9 -23 -63 0 -46
-3 -59 -15 -59 -12 0 -15 18 -15 102 0 114 -11 138 -62 138 -32 0 -35 11 -11
40 16 18 18 18 34 4 20 -18 39 -11 39 15 0 10 3 21 6 24 11 10 24 -3 24 -23z"/>
<path d="M244 310 c0 -85 2 -120 3 -77 2 42 2 112 0 155 -1 42 -3 7 -3 -78z"/>
<path d="M168 403 c12 -2 32 -2 45 0 12 2 2 4 -23 4 -25 0 -35 -2 -22 -4z"/>
<path d="M278 403 c12 -2 32 -2 45 0 12 2 2 4 -23 4 -25 0 -35 -2 -22 -4z"/>
<path d="M268 333 c6 -2 18 -2 25 0 6 3 1 5 -13 5 -14 0 -19 -2 -12 -5z"/>
<path d="M260 305 c0 -8 7 -15 15 -15 8 0 15 7 15 15 0 8 -7 15 -15 15 -8 0
-15 -7 -15 -15z"/>
</g>
</svg>
