<?xml version="1.0" standalone="no"?>
<!DOCTYPE svg PUBLIC "-//W3C//DTD SVG 20010904//EN"
 "http://www.w3.org/TR/2001/REC-SVG-20010904/DTD/svg10.dtd">
<svg version="1.0" xmlns="http://www.w3.org/2000/svg"
 width="53.000000pt" height="51.000000pt" viewBox="0 0 53.000000 51.000000"
 preserveAspectRatio="xMidYMid meet">

<g transform="translate(0.000000,51.000000) scale(0.100000,-0.100000)"
fill="#000000" stroke="none">
<path d="M210 494 c-170 -37 -229 -116 -200 -269 16 -87 56 -147 121 -184 69
-39 132 -47 203 -27 118 34 191 127 191 241 -1 65 -29 142 -68 183 -54 58
-144 79 -247 56z m145 -116 c24 -28 36 -86 15 -73 -5 3 -10 14 -10 23 0 29
-28 60 -60 67 -36 8 -31 24 5 17 14 -2 36 -18 50 -34z m-39 -6 c11 -7 34 -45
34 -56 0 -15 -16 -4 -25 17 -6 12 -20 23 -32 25 -13 2 -23 8 -23 13 0 11 30
12 46 1z m-98 -25 c17 -18 30 -22 53 -19 30 4 31 3 25 -25 -5 -21 -2 -34 9
-43 9 -7 20 -21 26 -31 8 -15 4 -21 -20 -34 -34 -17 -61 -20 -61 -5 0 6 11 10
24 10 46 0 39 22 -26 87 l-65 65 -10 -28 c-14 -43 2 -92 37 -112 17 -9 30 -24
30 -33 0 -9 9 -24 20 -34 11 -10 20 -26 20 -37 0 -15 -8 -18 -50 -18 -51 0
-58 7 -44 44 9 23 26 20 19 -4 -5 -17 -2 -20 24 -20 36 0 39 10 11 35 -11 10
-20 21 -20 26 0 4 -16 23 -35 42 -28 28 -35 43 -35 74 0 36 22 83 39 83 4 0
17 -10 29 -23z"/>
<path d="M265 300 c3 -5 8 -10 11 -10 2 0 4 5 4 10 0 6 -5 10 -11 10 -5 0 -7
-4 -4 -10z"/>
</g>
</svg>
