<svg xmlns="http://www.w3.org/2000/svg" xmlns:xlink="http://www.w3.org/1999/xlink" width="1924" zoomAndPan="magnify" viewBox="0 0 1443 510.000002" height="680" preserveAspectRatio="xMidYMid meet" version="1.0"><defs><clipPath id="fede3c4b68"><path d="M 1.410156 237.238281 L 1441.585938 237.238281 L 1441.585938 455.773438 L 1.410156 455.773438 Z M 1.410156 237.238281 " clip-rule="nonzero"/></clipPath><clipPath id="1a3b9d47ff"><path d="M 1.410156 455.394531 L 1441.585938 455.394531 L 1441.585938 509.003906 L 1.410156 509.003906 Z M 1.410156 455.394531 " clip-rule="nonzero"/></clipPath></defs><g clip-path="url(#fede3c4b68)"><path fill="#ef7a51" d="M -137.085938 237.40625 L -68.914062 273.800781 C -0.75 310.195312 135.585938 382.984375 271.925781 395.15625 C 408.257812 406.867188 544.59375 359.101562 680.929688 358.757812 C 817.265625 359.101562 953.597656 406.867188 1089.933594 401.183594 C 1226.273438 395.492188 1362.609375 334.078125 1430.773438 304.167969 L 1498.945312 273.800781 L 1498.945312 455.773438 L 1430.773438 455.773438 C 1362.609375 455.773438 1226.273438 455.773438 1089.933594 455.773438 C 953.597656 455.773438 817.265625 455.773438 680.929688 455.773438 C 544.59375 455.773438 408.257812 455.773438 271.925781 455.773438 C 135.585938 455.773438 -0.75 455.773438 -68.914062 455.773438 L -137.085938 455.773438 Z M -137.085938 237.40625 " fill-opacity="1" fill-rule="nonzero"/></g><g clip-path="url(#1a3b9d47ff)"><path fill="#ef7a51" d="M -171.171875 455.394531 L 1575.046875 455.394531 L 1575.046875 573.980469 L -171.171875 573.980469 Z M -171.171875 455.394531 " fill-opacity="1" fill-rule="nonzero"/></g></svg>